<svg width="48" height="48" viewBox="0 0 48 48" fill="none" xmlns="http://www.w3.org/2000/svg">
<path d="M37.5002 27.3001L36.6002 15.6001C38.1002 14.0001 37.8002 8.90007 32.8002 9.90007L26.6002 11.4001C25.9002 12.2001 24.2002 13.7001 24.2002 13.7001C26.5002 15.0001 26.4002 17.6001 24.6002 19.4001C24.8002 20.1001 24.3002 22.5001 23.0002 23.4001C23.6002 25.7001 21.7002 26.9001 20.9002 27.2001C20.9002 27.2001 21.2002 31.5001 17.4002 31.0001C17.2002 31.0001 9.0002 29.5001 9.0002 29.5001L7.2002 31.9001C8.6002 36.0001 12.8002 40.1001 18.0002 42.0001L23.5002 36.9001C32.7002 37.4001 37.7002 30.6001 37.5002 27.3001Z" fill="#FF3C00"/>
<path d="M23.6998 18C23.4998 17.8 14.0998 13 14.0998 13C11.0998 11.6 13.8998 8.30003 15.9998 9.40003L17.9998 10.6C16.3998 13.5 20.9998 15.6 22.6998 14.4C22.6998 14.5 25.6998 15.4 23.6998 18Z" fill="#FF3C00"/>
<path d="M22.3003 21.9C21.0003 20.2 11.2003 17.3 11.2003 17.3C8.60029 16.4 10.3003 12.9 12.8003 14.1L22.2003 18.9C24.5003 20 22.3003 21.9 22.3003 21.9Z" fill="#FF3C00"/>
<path d="M20.3004 25.7001C19.9004 25.0001 19.1005 24.5001 18.3005 24.3001L10.0004 22.7001C7.50045 22.3001 8.30045 18.3001 11.1004 19.3001C11.1004 19.3001 18.0004 21.1001 20.3004 22.3001C22.7004 23.5001 21.4004 25.7001 20.3004 25.7001Z" fill="#FF3C00"/>
<path d="M17.4004 29.4L9.50039 28C6.90039 27.6 7.90039 24 9.90039 24.4L18.1004 25.8C20.1004 26.3 19.5004 29.7 17.4004 29.4Z" fill="#FF3C00"/>
<path d="M29.0004 9.00003L26.0004 9.80003C26.0004 9.80003 22.4004 14.9 19.9004 12.7C18.3004 11.2 22.0004 7.20003 22.0004 7.20003C24.1004 5.30003 26.3004 6.30003 29.0004 9.00003Z" fill="#FF3C00"/>
<path d="M38.7004 30.3L40.9004 34.7001C41.1004 38.1001 32.0004 43.3 28.8004 42.3L26.9004 38.8C30.5004 39 38.6004 34.9 38.7004 30.3Z" fill="#FF3C00"/>
</svg>
